<svg xmlns="http://www.w3.org/2000/svg" xmlns:svg="http://www.w3.org/2000/svg" xmlns:xlink="http://www.w3.org/1999/xlink" version="1.0" height="950pt" width="902pt" viewBox="295 47 910 956" ><defs><style type="text/css">
            @font-face {
                font-family: 'lt_regular';
                src: url('https://app.creately.com/diagram/assets/fonts/lato/lt-regular-webfont.woff2') format('woff2'),
                    url('https://app.creately.com/diagram/assets/fonts/lato/lt-regular-webfont.woff') format('woff');
                font-weight: normal;
                font-style: normal;
            }
            @font-face {
                font-family: 'noto_regular';
                src: url('https://app.creately.com/diagram/assets/fonts/noto/noto-regular.woff') format('woff'),
                     url('https://app.creately.com/diagram/assets/fonts/noto/noto-regular.woff2') format('woff2');
                font-weight: normal;
                font-style: normal;
            }
        p {
            margin: 0;
        }
        </style></defs><defs><style>
            span{ display: inline-block; }
        </style></defs><g id="GH3mnqgWQge"><g transform="translate(300 50)"><rect x="0" y="0" width="200" height="100" rx="2" ry="2" fill="rgb(35,169,225)" stroke="#17769e" stroke-width="2" stroke-linecap="round" stroke-linejoin="round" stroke-dasharray="0 0"/><path d="M 0,30 L 200,30" fill="rgb(35,169,225)" stroke="#17769e" stroke-width="2" stroke-linecap="round" stroke-linejoin="round" stroke-dasharray="0 0"/></g><g transform="translate(368, 55) rotate(0, 32, 0)" width="64" height="20"><text text-decoration="none" x="16" fill="#ffffff" font-size="11pt" font-family="lt_regular"  y="16">Web&#160;</text><text text-decoration="none" x="17" fill="#ffffff" font-size="11pt" font-family="lt_regular"  y="36">User</text><text text-decoration="none" x="47" fill="#4b4b4b" font-size="10pt" font-family="noto_regular"  y="36"></text></g><g transform="translate(310, 85) rotate(0, 0, 0)" width="124" height="40"><text text-decoration="none" x="0" fill="#ffffff" font-size="11pt" font-family="lt_regular"  y="16">Login_ID:&#160;</text><text text-decoration="none" x="0" fill="#ffffff" font-size="11pt" font-family="lt_regular"  y="36">String(ID)</text><text text-decoration="none" x="61" fill="#ffffff" font-size="11pt" font-family="lt_regular"  y="36"></text><text text-decoration="none" x="0" fill="#ffffff" font-size="11pt" font-family="lt_regular"  y="56">Password&#160;</text><text text-decoration="none" x="66" fill="#ffffff" font-size="11pt" font-family="lt_regular"  y="56">:&#160;</text><text text-decoration="none" x="74" fill="#ffffff" font-size="11pt" font-family="lt_regular"  y="56">String</text><text text-decoration="none" x="112" fill="#4b4b4b" font-size="10pt" font-family="noto_regular"  y="56"></text></g></g><g id="ehMi25SPSgl"><g transform="translate(300 300)"><rect x="0" y="0" width="200" height="250" rx="2" ry="2" fill="rgb(35,169,225)" stroke="#17769e" stroke-width="2" stroke-linecap="round" stroke-linejoin="round" stroke-dasharray="0 0"/><path d="M 0,30 L 200,30 M 0,140 L 200,140" fill="rgb(35,169,225)" stroke="#17769e" stroke-width="2" stroke-linecap="round" stroke-linejoin="round" stroke-dasharray="0 0"/></g><g transform="translate(310, 305) rotate(0, 0, 0)" width="63" height="20"><text text-decoration="none" x="0" fill="#ffffff" font-size="11pt" font-family="lt_regular"  y="16">Customer</text><text text-decoration="none" x="63" fill="#4b4b4b" font-size="10pt" font-family="noto_regular"  y="16"></text></g><g transform="translate(310, 335) rotate(0, 0, 0)" width="156" height="100"><text text-decoration="none" x="0" fill="#ffffff" font-size="11pt" font-family="lt_regular"  y="16">-&#160;</text><text text-decoration="none" x="10" fill="#ffffff" font-size="11pt" font-family="lt_regular"  y="16">name:&#160;</text><text text-decoration="none" x="53" fill="#ffffff" font-size="11pt" font-family="lt_regular"  y="16">String</text><text text-decoration="none" x="91" fill="#ffffff" font-size="11pt" font-family="lt_regular"  y="16"></text><text text-decoration="none" x="0" fill="#ffffff" font-size="11pt" font-family="lt_regular"  y="36">-&#160;</text><text text-decoration="none" x="10" fill="#ffffff" font-size="11pt" font-family="lt_regular"  y="36">shippingAdress&#160;</text><text text-decoration="none" x="111" fill="#ffffff" font-size="11pt" font-family="lt_regular"  y="36">:&#160;</text><text text-decoration="none" x="0" fill="#ffffff" font-size="11pt" font-family="lt_regular"  y="56">String</text><text text-decoration="none" x="38" fill="#ffffff" font-size="11pt" font-family="lt_regular"  y="56"></text><text text-decoration="none" x="0" fill="#ffffff" font-size="11pt" font-family="lt_regular"  y="76">-&#160;</text><text text-decoration="none" x="10" fill="#ffffff" font-size="11pt" font-family="lt_regular"  y="76">customerID&#160;</text><text text-decoration="none" x="89" fill="#ffffff" font-size="11pt" font-family="lt_regular"  y="76">:&#160;</text><text text-decoration="none" x="97" fill="#ffffff" font-size="11pt" font-family="lt_regular"  y="76">Integer&#160;</text><text text-decoration="none" x="147" fill="#ffffff" font-size="11pt" font-family="lt_regular"  y="76"></text><text text-decoration="none" x="0" fill="#ffffff" font-size="11pt" font-family="lt_regular"  y="96">-&#160;&#160;</text><text text-decoration="none" x="14" fill="#ffffff" font-size="11pt" font-family="lt_regular"  y="96">email:&#160;</text><text text-decoration="none" x="57" fill="#ffffff" font-size="11pt" font-family="lt_regular"  y="96">String</text><text text-decoration="none" x="95" fill="#ffffff" font-size="11pt" font-family="lt_regular"  y="96"></text><text text-decoration="none" x="0" fill="#ffffff" font-size="11pt" font-family="lt_regular"  y="116">-&#160;</text><text text-decoration="none" x="10" fill="#ffffff" font-size="11pt" font-family="lt_regular"  y="116">Phone:&#160;</text><text text-decoration="none" x="60" fill="#ffffff" font-size="11pt" font-family="lt_regular"  y="116">Integer</text><text text-decoration="none" x="106" fill="#4b4b4b" font-size="10pt" font-family="noto_regular"  y="116"></text></g><g transform="translate(310, 445) rotate(0, 0, 0)" width="100" height="60"><text text-decoration="none" x="0" fill="#ffffff" font-size="11pt" font-family="lt_regular"  y="16">-&#160;</text><text text-decoration="none" x="10" fill="#ffffff" font-size="11pt" font-family="lt_regular"  y="16">register()</text><text text-decoration="none" x="67" fill="#ffffff" font-size="11pt" font-family="lt_regular"  y="16"></text><text text-decoration="none" x="0" fill="#ffffff" font-size="11pt" font-family="lt_regular"  y="36">+&#160;</text><text text-decoration="none" x="13" fill="#ffffff" font-size="11pt" font-family="lt_regular"  y="36">login()</text><text text-decoration="none" x="54" fill="#ffffff" font-size="11pt" font-family="lt_regular"  y="36"></text><text text-decoration="none" x="0" fill="#ffffff" font-size="11pt" font-family="lt_regular"  y="56">-changeProfile()</text><text text-decoration="none" x="104" fill="#4b4b4b" font-size="10pt" font-family="noto_regular"  y="56"></text></g></g><g id="TpSuAhNzF2g"><g transform="translate(700 350)"><rect x="0" y="0" width="200" height="150" rx="2" ry="2" fill="rgb(35,169,225)" stroke="#17769e" stroke-width="2" stroke-linecap="round" stroke-linejoin="round" stroke-dasharray="0 0"/><path d="M 0,30 L 200,30" fill="rgb(35,169,225)" stroke="#17769e" stroke-width="2" stroke-linecap="round" stroke-linejoin="round" stroke-dasharray="0 0"/></g><g transform="translate(710, 355) rotate(0, 0, 0)" width="53" height="20"><text text-decoration="none" x="0" fill="#ffffff" font-size="11pt" font-family="lt_regular"  y="16">Account</text><text text-decoration="none" x="54" fill="#4b4b4b" font-size="10pt" font-family="noto_regular"  y="16"></text></g><g transform="translate(710, 385) rotate(0, 0, 0)" width="155" height="80"><text text-decoration="none" x="0" fill="#ffffff" font-size="11pt" font-family="lt_regular"  y="16">-&#160;</text><text text-decoration="none" x="10" fill="#ffffff" font-size="11pt" font-family="lt_regular"  y="16">Customer&#160;</text><text text-decoration="none" x="0" fill="#ffffff" font-size="11pt" font-family="lt_regular"  y="36">ID:String(ID)</text><text text-decoration="none" x="80" fill="#ffffff" font-size="11pt" font-family="lt_regular"  y="36"></text><text text-decoration="none" x="0" fill="#ffffff" font-size="11pt" font-family="lt_regular"  y="56">-&#160;</text><text text-decoration="none" x="10" fill="#ffffff" font-size="11pt" font-family="lt_regular"  y="56">Address:String</text><text text-decoration="none" x="103" fill="#ffffff" font-size="11pt" font-family="lt_regular"  y="56"></text><text text-decoration="none" x="0" fill="#ffffff" font-size="11pt" font-family="lt_regular"  y="76">-&#160;</text><text text-decoration="none" x="10" fill="#ffffff" font-size="11pt" font-family="lt_regular"  y="76">Open:&#160;</text><text text-decoration="none" x="54" fill="#ffffff" font-size="11pt" font-family="lt_regular"  y="76">Date</text><text text-decoration="none" x="85" fill="#ffffff" font-size="11pt" font-family="lt_regular"  y="76"></text><text text-decoration="none" x="0" fill="#ffffff" font-size="11pt" font-family="lt_regular"  y="96">-&#160;</text><text text-decoration="none" x="10" fill="#ffffff" font-size="11pt" font-family="lt_regular"  y="96">Close:&#160;</text><text text-decoration="none" x="55" fill="#ffffff" font-size="11pt" font-family="lt_regular"  y="96">Date</text><text text-decoration="none" x="86" fill="#4b4b4b" font-size="10pt" font-family="noto_regular"  y="96"></text></g></g><g id="bYS0rbeotUe"><mask id="a6258" x="386" y="136" width="28" height="178" maskUnits="userSpaceOnUse"><rect x="386" y="136" width="28" height="178" fill="white" /><rect x="387" y="167" width="26" height="26" fill="black" /><rect x="393" y="257" width="14" height="26" fill="black" /></mask><g mask="url(#a6258)"><path d="M 400,150 L 400,300" fill="none" stroke="#9A9A9A" stroke-width="2" stroke-linecap="round" stroke-linejoin="round"/></g><g transform="translate(390, 170)" width="20" height="20"><text text-decoration="none" x="0" fill="#4b4b4b" font-size="11pt" font-family="lt_regular"  y="16">0,1</text><text text-decoration="none" x="21" fill="#4b4b4b" font-size="10pt" font-family="noto_regular"  y="16"></text></g><g transform="translate(396, 260)" width="8" height="20"><text text-decoration="none" x="0" fill="#4b4b4b" font-size="11pt" font-family="lt_regular"  y="16">1</text><text text-decoration="none" x="9" fill="#4b4b4b" font-size="10pt" font-family="noto_regular"  y="16"></text></g></g><g id="IlahzJqLpNf"><mask id="6bb67" x="486" y="411" width="228" height="28" maskUnits="userSpaceOnUse"><rect x="486" y="411" width="228" height="28" fill="white" /><rect x="523" y="412" width="14" height="26" fill="black" /><rect x="663" y="412" width="14" height="26" fill="black" /></mask><g mask="url(#6bb67)"><path d="M 500,425 L 700,425" fill="none" stroke="#9A9A9A" stroke-width="2" stroke-linecap="round" stroke-linejoin="round"/></g><g transform="translate(526, 415)" width="8" height="20"><text text-decoration="none" x="0" fill="#4b4b4b" font-size="11pt" font-family="lt_regular"  y="16">1</text><text text-decoration="none" x="9" fill="#4b4b4b" font-size="10pt" font-family="noto_regular"  y="16"></text></g><g transform="translate(666, 415)" width="8" height="20"><text text-decoration="none" x="0" fill="#4b4b4b" font-size="11pt" font-family="lt_regular"  y="16">1</text><text text-decoration="none" x="9" fill="#4b4b4b" font-size="10pt" font-family="noto_regular"  y="16"></text></g></g><g id="Np0NA4sLYla"><g transform="translate(300 700)"><rect x="0" y="0" width="199.99999999999997" height="250" rx="2" ry="2" fill="rgb(35,169,225)" stroke="#17769e" stroke-width="2" stroke-linecap="round" stroke-linejoin="round" stroke-dasharray="0 0"/><path d="M 0,30 L 199.99999999999997,30 M 0,120 L 199.99999999999997,120" fill="rgb(35,169,225)" stroke="#17769e" stroke-width="2" stroke-linecap="round" stroke-linejoin="round" stroke-dasharray="0 0"/></g><g transform="translate(310, 705) rotate(0, 0, 0)" width="92" height="20"><text text-decoration="none" x="0" fill="#ffffff" font-size="11pt" font-family="lt_regular"  y="16">Shopping&#160;</text><text text-decoration="none" x="65" fill="#ffffff" font-size="11pt" font-family="lt_regular"  y="16">Cart</text><text text-decoration="none" x="92" fill="#4b4b4b" font-size="10pt" font-family="noto_regular"  y="16"></text></g><g transform="translate(310, 735) rotate(0, 0, 0)" width="119" height="80"><text text-decoration="none" x="0" fill="#ffffff" font-size="11pt" font-family="lt_regular"  y="16">-&#160;</text><text text-decoration="none" x="10" fill="#ffffff" font-size="11pt" font-family="lt_regular"  y="16">items&#160;</text><text text-decoration="none" x="49" fill="#ffffff" font-size="11pt" font-family="lt_regular"  y="16">:&#160;</text><text text-decoration="none" x="57" fill="#ffffff" font-size="11pt" font-family="lt_regular"  y="16">String</text><text text-decoration="none" x="95" fill="#ffffff" font-size="11pt" font-family="lt_regular"  y="16"></text><text text-decoration="none" x="0" fill="#ffffff" font-size="11pt" font-family="lt_regular"  y="36">-&#160;</text><text text-decoration="none" x="10" fill="#ffffff" font-size="11pt" font-family="lt_regular"  y="36">date:date</text><text text-decoration="none" x="70" fill="#ffffff" font-size="11pt" font-family="lt_regular"  y="36"></text><text text-decoration="none" x="0" fill="#ffffff" font-size="11pt" font-family="lt_regular"  y="56">-&#160;</text><text text-decoration="none" x="10" fill="#ffffff" font-size="11pt" font-family="lt_regular"  y="56">price&#160;</text><text text-decoration="none" x="46" fill="#ffffff" font-size="11pt" font-family="lt_regular"  y="56">:&#160;</text><text text-decoration="none" x="54" fill="#ffffff" font-size="11pt" font-family="lt_regular"  y="56">Integer</text><text text-decoration="none" x="100" fill="#ffffff" font-size="11pt" font-family="lt_regular"  y="56"></text><text text-decoration="none" x="0" fill="#ffffff" font-size="11pt" font-family="lt_regular"  y="76">-&#160;</text><text text-decoration="none" x="10" fill="#ffffff" font-size="11pt" font-family="lt_regular"  y="76">quantity&#160;</text><text text-decoration="none" x="67" fill="#ffffff" font-size="11pt" font-family="lt_regular"  y="76">:&#160;</text><text text-decoration="none" x="0" fill="#ffffff" font-size="11pt" font-family="lt_regular"  y="96">integer</text><text text-decoration="none" x="46" fill="#4b4b4b" font-size="10pt" font-family="noto_regular"  y="96"></text></g><g transform="translate(310, 825) rotate(0, 0, 0)" width="122" height="100"><text text-decoration="none" x="0" fill="#ffffff" font-size="11pt" font-family="lt_regular"  y="16">+&#160;</text><text text-decoration="none" x="13" fill="#ffffff" font-size="11pt" font-family="lt_regular"  y="16">addItems()</text><text text-decoration="none" x="79" fill="#ffffff" font-size="11pt" font-family="lt_regular"  y="16"></text><text text-decoration="none" x="0" fill="#ffffff" font-size="11pt" font-family="lt_regular"  y="36">+&#160;</text><text text-decoration="none" x="13" fill="#ffffff" font-size="11pt" font-family="lt_regular"  y="36">updateQuantity()</text><text text-decoration="none" x="122" fill="#ffffff" font-size="11pt" font-family="lt_regular"  y="36"></text><text text-decoration="none" x="0" fill="#ffffff" font-size="11pt" font-family="lt_regular"  y="56">+&#160;</text><text text-decoration="none" x="0" fill="#ffffff" font-size="11pt" font-family="lt_regular"  y="76">viewCartDetails()</text><text text-decoration="none" x="112" fill="#ffffff" font-size="11pt" font-family="lt_regular"  y="76"></text><text text-decoration="none" x="0" fill="#ffffff" font-size="11pt" font-family="lt_regular"  y="96">+&#160;</text><text text-decoration="none" x="13" fill="#ffffff" font-size="11pt" font-family="lt_regular"  y="96">deleteItems()</text><text text-decoration="none" x="97" fill="#ffffff" font-size="11pt" font-family="lt_regular"  y="96"></text><text text-decoration="none" x="0" fill="#ffffff" font-size="11pt" font-family="lt_regular"  y="116">+checkOut()</text><text text-decoration="none" x="80" fill="#4b4b4b" font-size="10pt" font-family="noto_regular"  y="116"></text></g></g><g id="sZh4ZyGn0au"><g transform="translate(700 650)"><rect x="0" y="0" width="200" height="350" rx="2" ry="2" fill="rgb(35,169,225)" stroke="#17769e" stroke-width="2" stroke-linecap="round" stroke-linejoin="round" stroke-dasharray="0 0"/><path d="M 0,30 L 200,30 M 0,180 L 200,180" fill="rgb(35,169,225)" stroke="#17769e" stroke-width="2" stroke-linecap="round" stroke-linejoin="round" stroke-dasharray="0 0"/></g><g transform="translate(710, 655) rotate(0, 0, 0)" width="38" height="20"><text text-decoration="none" x="0" fill="#ffffff" font-size="11pt" font-family="lt_regular"  y="16">Order</text><text text-decoration="none" x="38" fill="#4b4b4b" font-size="10pt" font-family="noto_regular"  y="16"></text></g><g transform="translate(710, 685) rotate(0, 0, 0)" width="157" height="140"><text text-decoration="none" x="0" fill="#ffffff" font-size="11pt" font-family="lt_regular"  y="16">-&#160;</text><text text-decoration="none" x="10" fill="#ffffff" font-size="11pt" font-family="lt_regular"  y="16">orderNumber&#160;</text><text text-decoration="none" x="101" fill="#ffffff" font-size="11pt" font-family="lt_regular"  y="16">:&#160;</text><text text-decoration="none" x="109" fill="#ffffff" font-size="11pt" font-family="lt_regular"  y="16">Integer</text><text text-decoration="none" x="155" fill="#ffffff" font-size="11pt" font-family="lt_regular"  y="16"></text><text text-decoration="none" x="0" fill="#ffffff" font-size="11pt" font-family="lt_regular"  y="36">-&#160;</text><text text-decoration="none" x="10" fill="#ffffff" font-size="11pt" font-family="lt_regular"  y="36">customerId:Integer</text><text text-decoration="none" x="132" fill="#ffffff" font-size="11pt" font-family="lt_regular"  y="36"></text><text text-decoration="none" x="0" fill="#ffffff" font-size="11pt" font-family="lt_regular"  y="56">-&#160;</text><text text-decoration="none" x="10" fill="#ffffff" font-size="11pt" font-family="lt_regular"  y="56">totalOrder:Double</text><text text-decoration="none" x="130" fill="#ffffff" font-size="11pt" font-family="lt_regular"  y="56"></text><text text-decoration="none" x="0" fill="#ffffff" font-size="11pt" font-family="lt_regular"  y="76">-&#160;</text><text text-decoration="none" x="10" fill="#ffffff" font-size="11pt" font-family="lt_regular"  y="76">Ordered:&#160;</text><text text-decoration="none" x="72" fill="#ffffff" font-size="11pt" font-family="lt_regular"  y="76">Date</text><text text-decoration="none" x="103" fill="#ffffff" font-size="11pt" font-family="lt_regular"  y="76"></text><text text-decoration="none" x="0" fill="#ffffff" font-size="11pt" font-family="lt_regular"  y="96">-&#160;</text><text text-decoration="none" x="10" fill="#ffffff" font-size="11pt" font-family="lt_regular"  y="96">shipped:&#160;</text><text text-decoration="none" x="68" fill="#ffffff" font-size="11pt" font-family="lt_regular"  y="96">Date</text><text text-decoration="none" x="99" fill="#ffffff" font-size="11pt" font-family="lt_regular"  y="96"></text><text text-decoration="none" x="0" fill="#ffffff" font-size="11pt" font-family="lt_regular"  y="116">-&#160;</text><text text-decoration="none" x="10" fill="#ffffff" font-size="11pt" font-family="lt_regular"  y="116">shippingAdress:String</text><text text-decoration="none" x="149" fill="#ffffff" font-size="11pt" font-family="lt_regular"  y="116"></text><text text-decoration="none" x="0" fill="#ffffff" font-size="11pt" font-family="lt_regular"  y="136">-&#160;</text><text text-decoration="none" x="0" fill="#ffffff" font-size="11pt" font-family="lt_regular"  y="156">paymentMethod:String</text><text text-decoration="none" x="150" fill="#4b4b4b" font-size="10pt" font-family="noto_regular"  y="156"></text></g><g transform="translate(710, 835) rotate(0, 0, 0)" width="160" height="100"><text text-decoration="none" x="0" fill="#ffffff" font-size="11pt" font-family="lt_regular"  y="16">+&#160;</text><text text-decoration="none" x="13" fill="#ffffff" font-size="11pt" font-family="lt_regular"  y="16">placeOrder()</text><text text-decoration="none" x="93" fill="#ffffff" font-size="11pt" font-family="lt_regular"  y="16"></text><text text-decoration="none" x="0" fill="#ffffff" font-size="11pt" font-family="lt_regular"  y="36">-&#160;</text><text text-decoration="none" x="10" fill="#ffffff" font-size="11pt" font-family="lt_regular"  y="36">cancelOrder()</text><text text-decoration="none" x="97" fill="#ffffff" font-size="11pt" font-family="lt_regular"  y="36"></text><text text-decoration="none" x="0" fill="#ffffff" font-size="11pt" font-family="lt_regular"  y="56">-&#160;</text><text text-decoration="none" x="10" fill="#ffffff" font-size="11pt" font-family="lt_regular"  y="56">reviewOrder()</text><text text-decoration="none" x="101" fill="#ffffff" font-size="11pt" font-family="lt_regular"  y="56"></text><text text-decoration="none" x="0" fill="#ffffff" font-size="11pt" font-family="lt_regular"  y="76">-&#160;</text><text text-decoration="none" x="0" fill="#ffffff" font-size="11pt" font-family="lt_regular"  y="96">updateShippingAdress()</text><text text-decoration="none" x="151" fill="#ffffff" font-size="11pt" font-family="lt_regular"  y="96"></text><text text-decoration="none" x="0" fill="#ffffff" font-size="11pt" font-family="lt_regular"  y="116">-&#160;</text><text text-decoration="none" x="10" fill="#ffffff" font-size="11pt" font-family="lt_regular"  y="116">updatePayment()</text><text text-decoration="none" x="119" fill="#4b4b4b" font-size="10pt" font-family="noto_regular"  y="116"></text></g></g><g id="pZFhFVeJqB1"><g transform="translate(1050 700)"><rect x="0" y="0" width="150" height="250" rx="2" ry="2" fill="rgb(35,169,225)" stroke="#17769e" stroke-width="2" stroke-linecap="round" stroke-linejoin="round" stroke-dasharray="0 0"/><path d="M 0,30 L 150,30 M 0,120 L 150,120" fill="rgb(35,169,225)" stroke="#17769e" stroke-width="2" stroke-linecap="round" stroke-linejoin="round" stroke-dasharray="0 0"/></g><g transform="translate(1060, 705) rotate(0, 0, 0)" width="56" height="20"><text text-decoration="none" x="0" fill="#ffffff" font-size="11pt" font-family="lt_regular"  y="16">Payment</text><text text-decoration="none" x="57" fill="#4b4b4b" font-size="10pt" font-family="noto_regular"  y="16"></text></g><g transform="translate(1060, 735) rotate(0, 0, 0)" width="114" height="80"><text text-decoration="none" x="0" fill="#ffffff" font-size="11pt" font-family="lt_regular"  y="16">-&#160;</text><text text-decoration="none" x="10" fill="#ffffff" font-size="11pt" font-family="lt_regular"  y="16">ID:String(ID)</text><text text-decoration="none" x="90" fill="#ffffff" font-size="11pt" font-family="lt_regular"  y="16"></text><text text-decoration="none" x="0" fill="#ffffff" font-size="11pt" font-family="lt_regular"  y="36">-&#160;</text><text text-decoration="none" x="10" fill="#ffffff" font-size="11pt" font-family="lt_regular"  y="36">paid:Date</text><text text-decoration="none" x="72" fill="#ffffff" font-size="11pt" font-family="lt_regular"  y="36"></text><text text-decoration="none" x="0" fill="#ffffff" font-size="11pt" font-family="lt_regular"  y="56">-&#160;</text><text text-decoration="none" x="10" fill="#ffffff" font-size="11pt" font-family="lt_regular"  y="56">Amount:&#160;</text><text text-decoration="none" x="0" fill="#ffffff" font-size="11pt" font-family="lt_regular"  y="76">Integer</text><text text-decoration="none" x="46" fill="#ffffff" font-size="11pt" font-family="lt_regular"  y="76"></text><text text-decoration="none" x="0" fill="#ffffff" font-size="11pt" font-family="lt_regular"  y="96">-&#160;</text><text text-decoration="none" x="10" fill="#ffffff" font-size="11pt" font-family="lt_regular"  y="96">detail:&#160;</text><text text-decoration="none" x="54" fill="#ffffff" font-size="11pt" font-family="lt_regular"  y="96">String</text><text text-decoration="none" x="92" fill="#4b4b4b" font-size="10pt" font-family="noto_regular"  y="96"></text></g><g transform="translate(1060, 825) rotate(0, 0, 0)" width="142" height="60"><text text-decoration="none" x="0" fill="#ffffff" font-size="11pt" font-family="lt_regular"  y="16">+&#160;</text><text text-decoration="none" x="0" fill="#ffffff" font-size="11pt" font-family="lt_regular"  y="36">identityVerification()</text><text text-decoration="none" x="134" fill="#ffffff" font-size="11pt" font-family="lt_regular"  y="36"></text><text text-decoration="none" x="0" fill="#ffffff" font-size="11pt" font-family="lt_regular"  y="56">+&#160;</text><text text-decoration="none" x="13" fill="#ffffff" font-size="11pt" font-family="lt_regular"  y="56">Aproved()</text><text text-decoration="none" x="77" fill="#ffffff" font-size="11pt" font-family="lt_regular"  y="56"></text><text text-decoration="none" x="0" fill="#ffffff" font-size="11pt" font-family="lt_regular"  y="76">+&#160;</text><text text-decoration="none" x="13" fill="#ffffff" font-size="11pt" font-family="lt_regular"  y="76">Declined()</text><text text-decoration="none" x="79" fill="#4b4b4b" font-size="10pt" font-family="noto_regular"  y="76"></text></g></g><g id="2NdyWJy8Tjo"><mask id="e6126" x="386" y="536" width="28" height="178" maskUnits="userSpaceOnUse"><rect x="386" y="536" width="28" height="178" fill="white" /><rect x="391" y="657" width="18" height="26" fill="black" /><rect x="393" y="567" width="14" height="26" fill="black" /></mask><g mask="url(#e6126)"><path d="M 400,700 L 400,550" fill="none" stroke="#9A9A9A" stroke-width="2" stroke-linecap="round" stroke-linejoin="round"/></g><g transform="translate(394, 660)" width="12" height="20"><text text-decoration="none" x="0" fill="#4b4b4b" font-size="11pt" font-family="lt_regular"  y="16">m</text><text text-decoration="none" x="12" fill="#4b4b4b" font-size="10pt" font-family="noto_regular"  y="16"></text></g><g transform="translate(396, 570)" width="8" height="20"><text text-decoration="none" x="0" fill="#4b4b4b" font-size="11pt" font-family="lt_regular"  y="16">1</text><text text-decoration="none" x="9" fill="#4b4b4b" font-size="10pt" font-family="noto_regular"  y="16"></text></g></g><g id="mDEjFfSwnis"><mask id="4af99" x="786" y="486" width="28" height="178" maskUnits="userSpaceOnUse"><rect x="786" y="486" width="28" height="178" fill="white" /><rect x="791" y="607" width="18" height="26" fill="black" /><rect x="793" y="517" width="14" height="26" fill="black" /></mask><g mask="url(#4af99)"><path d="M 800,650 L 800,500" fill="none" stroke="#9A9A9A" stroke-width="2" stroke-linecap="round" stroke-linejoin="round"/></g><g transform="translate(794, 610)" width="12" height="20"><text text-decoration="none" x="0" fill="#4b4b4b" font-size="11pt" font-family="lt_regular"  y="16">m</text><text text-decoration="none" x="12" fill="#4b4b4b" font-size="10pt" font-family="noto_regular"  y="16"></text></g><g transform="translate(796, 520)" width="8" height="20"><text text-decoration="none" x="0" fill="#4b4b4b" font-size="11pt" font-family="lt_regular"  y="16">1</text><text text-decoration="none" x="9" fill="#4b4b4b" font-size="10pt" font-family="noto_regular"  y="16"></text></g></g><g id="TRKaDtoKpfZ"><mask id="c06e7" x="486" y="811" width="228" height="28" maskUnits="userSpaceOnUse"><rect x="486" y="811" width="228" height="28" fill="white" /><rect x="523" y="812" width="14" height="26" fill="black" /><rect x="661" y="812" width="18" height="26" fill="black" /></mask><g mask="url(#c06e7)"><path d="M 500,825 L 700,825" fill="none" stroke="#9A9A9A" stroke-width="2" stroke-linecap="round" stroke-linejoin="round"/></g><g transform="translate(526, 815)" width="8" height="20"><text text-decoration="none" x="0" fill="#4b4b4b" font-size="11pt" font-family="lt_regular"  y="16">1</text><text text-decoration="none" x="9" fill="#4b4b4b" font-size="10pt" font-family="noto_regular"  y="16"></text></g><g transform="translate(664, 815)" width="12" height="20"><text text-decoration="none" x="0" fill="#4b4b4b" font-size="11pt" font-family="lt_regular"  y="16">m</text><text text-decoration="none" x="12" fill="#4b4b4b" font-size="10pt" font-family="noto_regular"  y="16"></text></g></g><g id="LgIkTG8QUDO"><mask id="b72f4" x="886" y="811" width="178" height="28" maskUnits="userSpaceOnUse"><rect x="886" y="811" width="178" height="28" fill="white" /><rect x="923" y="812" width="14" height="26" fill="black" /><rect x="1013" y="812" width="14" height="26" fill="black" /></mask><g mask="url(#b72f4)"><path d="M 900,825 L 1050,825" fill="none" stroke="#9A9A9A" stroke-width="2" stroke-linecap="round" stroke-linejoin="round"/></g><g transform="translate(926, 815)" width="8" height="20"><text text-decoration="none" x="0" fill="#4b4b4b" font-size="11pt" font-family="lt_regular"  y="16">1</text><text text-decoration="none" x="9" fill="#4b4b4b" font-size="10pt" font-family="noto_regular"  y="16"></text></g><g transform="translate(1016, 815)" width="8" height="20"><text text-decoration="none" x="0" fill="#4b4b4b" font-size="11pt" font-family="lt_regular"  y="16">1</text><text text-decoration="none" x="9" fill="#4b4b4b" font-size="10pt" font-family="noto_regular"  y="16"></text></g></g><g id="Myj1yLdhPrQ"><mask id="a9881" x="886" y="449" width="253" height="265" maskUnits="userSpaceOnUse"><rect x="886" y="449" width="253" height="265" fill="white" /><rect x="1118" y="657" width="14" height="26" fill="black" /><rect x="922.9999259262003" y="449.93333349794176" width="14" height="26" fill="black" /></mask><g mask="url(#a9881)"><path d="M 1125,700 L 1125,472.5 Q 1125,462.5 1115.0000246912666,462.52222216735277 L 900,463" fill="none" stroke="#9A9A9A" stroke-width="2" stroke-linecap="round" stroke-linejoin="round"/></g><g transform="translate(1121, 660)" width="8" height="20"><text text-decoration="none" x="0" fill="#4b4b4b" font-size="11pt" font-family="lt_regular"  y="16">0</text><text text-decoration="none" x="9" fill="#4b4b4b" font-size="10pt" font-family="noto_regular"  y="16"></text></g><g transform="translate(925.9999259262003, 452.93333349794176)" width="8" height="20"><text text-decoration="none" x="0" fill="#4b4b4b" font-size="11pt" font-family="lt_regular"  y="16">1</text><text text-decoration="none" x="9" fill="#4b4b4b" font-size="10pt" font-family="noto_regular"  y="16"></text></g></g></svg>