<svg xmlns="http://www.w3.org/2000/svg" xmlns:svg="http://www.w3.org/2000/svg" xmlns:xlink="http://www.w3.org/1999/xlink" version="1.0" height="870.9999999999998pt" width="567.5000000000001pt" viewBox="-112.50000000000011 67 575.5000000000001 876.9999999999998" ><defs><style type="text/css">
            @font-face {
                font-family: 'lt_regular';
                src: url('https://app.creately.com/diagram/assets/fonts/lato/lt-regular-webfont.woff2') format('woff2'),
                    url('https://app.creately.com/diagram/assets/fonts/lato/lt-regular-webfont.woff') format('woff');
                font-weight: normal;
                font-style: normal;
            }
            @font-face {
                font-family: 'noto_regular';
                src: url('https://app.creately.com/diagram/assets/fonts/noto/noto-regular.woff') format('woff'),
                     url('https://app.creately.com/diagram/assets/fonts/noto/noto-regular.woff2') format('woff2');
                font-weight: normal;
                font-style: normal;
            }
        p {
            margin: 0;
        }
        </style></defs><defs><style>
            span{ display: inline-block; }
        </style></defs><g id="jzWglNTfOhp"><g transform="translate(280 70)"><rect x="0" y="0" width="179.99999999999997" height="109.99999999999997" rx="2" ry="2" fill="rgb(242,242,242)" stroke="#0067A0" stroke-width="2" stroke-linecap="round" stroke-linejoin="round" stroke-dasharray="0 0"/><path d="M 0,28 L 179.99999999999997,28 M 0,56 L 179.99999999999997,56" fill="rgb(242,242,242)" stroke="#0067A0" stroke-width="2" stroke-linecap="round" stroke-linejoin="round" stroke-dasharray="0 0"/></g><g transform="translate(290, 75) rotate(0, 0, 0)" width="51.71" height="18"><text text-decoration="none" x="0" fill="#0b0b0b" font-size="10pt" font-family="lt_regular"  y="17">Payment</text><text text-decoration="none" x="51" fill="#4b4b4b" font-size="10pt" font-family="noto_regular"  y="17"></text></g><g transform="translate(290, 104) rotate(0, 0, 0)" width="54.91" height="18"><text text-decoration="none" x="0" fill="rgb(11, 11, 11)" font-size="10pt" font-family="lt_regular"  y="17">+Amount</text><text text-decoration="none" x="54" fill="#4b4b4b" font-size="10pt" font-family="noto_regular"  y="17"></text></g><g transform="translate(284.995, 133) rotate(0, 0.005, 0)" width="0.01" height="18.1"><text text-decoration="none" x="0.005" fill="#4b4b4b" font-size="10pt" font-family="noto_regular"  y="17"></text></g></g><g id="WRZbZsCIRCT"><g transform="translate(-107.50000000000011 170.00000000000003)"><rect x="0" y="0" width="180" height="240.00000000000003" rx="2" ry="2" fill="rgb(242,242,242)" stroke="#0067A0" stroke-width="2" stroke-linecap="round" stroke-linejoin="round" stroke-dasharray="0 0"/><path d="M 0,28 L 180,28 M 0,92.00999999999999 L 180,92.00999999999999" fill="rgb(242,242,242)" stroke="#0067A0" stroke-width="2" stroke-linecap="round" stroke-linejoin="round" stroke-dasharray="0 0"/></g><g transform="translate(-97.50000000000011, 175.00000000000003) rotate(0, 0, 0)" width="59.44" height="18"><text text-decoration="none" x="0" fill="#0b0b0b" font-size="10pt" font-family="lt_regular"  y="17">Passenger</text><text text-decoration="none" x="59" fill="#4b4b4b" font-size="10pt" font-family="noto_regular"  y="17"></text></g><g transform="translate(-97.50000000000011, 204.00000000000003) rotate(0, 0, 0)" width="55.1" height="54.01"><text text-decoration="none" x="0" fill="#0b0b0b" font-size="10pt" font-family="lt_regular"  y="14">+Name</text><text text-decoration="none" x="42" fill="#0b0b0b" font-size="10pt" font-family="lt_regular"  y="14"></text><text text-decoration="none" x="0" fill="#0b0b0b" font-size="10pt" font-family="lt_regular"  y="33">+Age</text><text text-decoration="none" x="31" fill="#0b0b0b" font-size="10pt" font-family="lt_regular"  y="33"></text><text text-decoration="none" x="0" fill="#0b0b0b" font-size="10pt" font-family="lt_regular"  y="55">+Address</text><text text-decoration="none" x="55" fill="#4b4b4b" font-size="10pt" font-family="noto_regular"  y="55"></text></g><g transform="translate(-97.50000000000011, 269) rotate(0, 0, 0)" width="104.35" height="108"><text text-decoration="none" x="0" fill="#0b0b0b" font-size="10pt" font-family="lt_regular"  y="14">+SearchTrains()</text><text text-decoration="none" x="87" fill="#0b0b0b" font-size="10pt" font-family="lt_regular"  y="14"></text><text text-decoration="none" x="0" fill="#0b0b0b" font-size="10pt" font-family="lt_regular"  y="33">+ViewSchedule()</text><text text-decoration="none" x="94" fill="#0b0b0b" font-size="10pt" font-family="lt_regular"  y="33"></text><text text-decoration="none" x="0" fill="#0b0b0b" font-size="10pt" font-family="lt_regular"  y="52">+ReserveSeat()</text><text text-decoration="none" x="86" fill="#0b0b0b" font-size="10pt" font-family="lt_regular"  y="52"></text><text text-decoration="none" x="0" fill="#0b0b0b" font-size="10pt" font-family="lt_regular"  y="71">+PurchaseTicket()</text><text text-decoration="none" x="102" fill="#0b0b0b" font-size="10pt" font-family="lt_regular"  y="71"></text><text text-decoration="none" x="0" fill="#0b0b0b" font-size="10pt" font-family="lt_regular"  y="90">+CancelTicket()</text><text text-decoration="none" x="88" fill="#0b0b0b" font-size="10pt" font-family="lt_regular"  y="90"></text><text text-decoration="none" x="0" fill="#0b0b0b" font-size="10pt" font-family="lt_regular"  y="112">+MakePayment()</text><text text-decoration="none" x="97" fill="#4b4b4b" font-size="10pt" font-family="noto_regular"  y="112"></text></g></g><g id="4p2ldW0sgTE"><g transform="translate(280 249.99999999999994)"><rect x="0" y="0" width="179.99999999999997" height="159.99999999999986" rx="2" ry="2" fill="rgb(242,242,242)" stroke="#0067A0" stroke-width="2" stroke-linecap="round" stroke-linejoin="round" stroke-dasharray="0 0"/><path d="M 0,28 L 179.99999999999997,28 M 0,110 L 179.99999999999997,110" fill="rgb(242,242,242)" stroke="#0067A0" stroke-width="2" stroke-linecap="round" stroke-linejoin="round" stroke-dasharray="0 0"/></g><g transform="translate(290, 254.99999999999994) rotate(0, 0, 0)" width="36.02" height="18"><text text-decoration="none" x="0" fill="#0b0b0b" font-size="10pt" font-family="lt_regular"  y="17">Ticket</text><text text-decoration="none" x="36" fill="#4b4b4b" font-size="10pt" font-family="noto_regular"  y="17"></text></g><g transform="translate(290, 283.99999999999994) rotate(0, 0, 0)" width="126" height="72"><text text-decoration="none" x="0" fill="#0b0b0b" font-size="10pt" font-family="lt_regular"  y="14">+TicketNo</text><text text-decoration="none" x="61" fill="#0b0b0b" font-size="10pt" font-family="lt_regular"  y="14"></text><text text-decoration="none" x="0" fill="#0b0b0b" font-size="10pt" font-family="lt_regular"  y="33">+StartingLocation</text><text text-decoration="none" x="101" fill="#0b0b0b" font-size="10pt" font-family="lt_regular"  y="33"></text><text text-decoration="none" x="0" fill="#0b0b0b" font-size="10pt" font-family="lt_regular"  y="52">+DestinationLocation</text><text text-decoration="none" x="122" fill="#0b0b0b" font-size="10pt" font-family="lt_regular"  y="52"></text><text text-decoration="none" x="0" fill="#0b0b0b" font-size="10pt" font-family="lt_regular"  y="74">+PassengerNo</text><text text-decoration="none" x="84" fill="#4b4b4b" font-size="10pt" font-family="noto_regular"  y="74"></text></g><g transform="translate(290, 366.99999999999994) rotate(0, 0, 0)" width="113.71" height="36.01"><text text-decoration="none" x="0" fill="#0b0b0b" font-size="10pt" font-family="lt_regular"  y="14">+PaymentAmount()</text><text text-decoration="none" x="111" fill="#0b0b0b" font-size="10pt" font-family="lt_regular"  y="14"></text><text text-decoration="none" x="0" fill="#0b0b0b" font-size="10pt" font-family="lt_regular"  y="36">+CancelTicket()</text><text text-decoration="none" x="88" fill="#4b4b4b" font-size="10pt" font-family="noto_regular"  y="36"></text></g></g><g id="fInnFuWWgjw"><g transform="translate(280 450.00000000000006)"><rect x="0" y="0" width="179.99999999999997" height="134.9999999999999" rx="2" ry="2" fill="rgb(242,242,242)" stroke="#0067A0" stroke-width="2" stroke-linecap="round" stroke-linejoin="round" stroke-dasharray="0 0"/><path d="M 0,28 L 179.99999999999997,28 M 0,74.00999999999999 L 179.99999999999997,74.00999999999999" fill="rgb(242,242,242)" stroke="#0067A0" stroke-width="2" stroke-linecap="round" stroke-linejoin="round" stroke-dasharray="0 0"/></g><g transform="translate(290, 455.00000000000006) rotate(0, 0, 0)" width="29.97" height="18"><text text-decoration="none" x="0" fill="#0b0b0b" font-size="10pt" font-family="lt_regular"  y="17">Train</text><text text-decoration="none" x="29" fill="#4b4b4b" font-size="10pt" font-family="noto_regular"  y="17"></text></g><g transform="translate(290, 484.00000000000006) rotate(0, 0, 0)" width="48.9" height="36.01"><text text-decoration="none" x="0" fill="#0b0b0b" font-size="10pt" font-family="lt_regular"  y="14">+Model</text><text text-decoration="none" x="44" fill="#0b0b0b" font-size="10pt" font-family="lt_regular"  y="14"></text><text text-decoration="none" x="0" fill="#0b0b0b" font-size="10pt" font-family="lt_regular"  y="36">+TrainId</text><text text-decoration="none" x="48" fill="#4b4b4b" font-size="10pt" font-family="noto_regular"  y="36"></text></g><g transform="translate(284.995, 531) rotate(0, 0.005, 0)" width="0.01" height="18.1"><text text-decoration="none" x="0.005" fill="#4b4b4b" font-size="10pt" font-family="noto_regular"  y="17"></text></g></g><g id="T91GR126Xjx"><g transform="translate(-107.50000000000011 530)"><rect x="0" y="0" width="180" height="159.9999999999999" rx="2" ry="2" fill="rgb(242,242,242)" stroke="#0067A0" stroke-width="2" stroke-linecap="round" stroke-linejoin="round" stroke-dasharray="0 0"/><path d="M 0,28 L 180,28 M 0,74.00999999999999 L 180,74.00999999999999" fill="rgb(242,242,242)" stroke="#0067A0" stroke-width="2" stroke-linecap="round" stroke-linejoin="round" stroke-dasharray="0 0"/></g><g transform="translate(-52.57500000000012, 535) rotate(0, 35.075, 0)" width="70.15" height="18"><text text-decoration="none" x="0.07500000000000284" fill="#0b0b0b" font-size="10pt" font-family="lt_regular"  y="17">Ticket&#160;</text><text text-decoration="none" x="39.075" fill="#0b0b0b" font-size="10pt" font-family="lt_regular"  y="17">Clerk</text><text text-decoration="none" x="70.075" fill="#4b4b4b" font-size="10pt" font-family="noto_regular"  y="17"></text></g><g transform="translate(-97.50000000000011, 564) rotate(0, 0, 0)" width="58.08" height="36.01"><text text-decoration="none" x="0" fill="#0b0b0b" font-size="10pt" font-family="lt_regular"  y="14">+Name</text><text text-decoration="none" x="42" fill="#0b0b0b" font-size="10pt" font-family="lt_regular"  y="14"></text><text text-decoration="none" x="0" fill="#0b0b0b" font-size="10pt" font-family="lt_regular"  y="36">+Location</text><text text-decoration="none" x="56" fill="#4b4b4b" font-size="10pt" font-family="noto_regular"  y="36"></text></g><g transform="translate(-97.5000000000001, 611) rotate(0, 0, 0)" width="111.83" height="72"><text text-decoration="none" x="0" fill="#0b0b0b" font-size="10pt" font-family="lt_regular"  y="14">+ReserveSeat()</text><text text-decoration="none" x="86" fill="#0b0b0b" font-size="10pt" font-family="lt_regular"  y="14"></text><text text-decoration="none" x="0" fill="#0b0b0b" font-size="10pt" font-family="lt_regular"  y="33">+ReserveTicket()</text><text text-decoration="none" x="97" fill="#0b0b0b" font-size="10pt" font-family="lt_regular"  y="33"></text><text text-decoration="none" x="0" fill="#0b0b0b" font-size="10pt" font-family="lt_regular"  y="52">+CancelTicket()</text><text text-decoration="none" x="88" fill="#0b0b0b" font-size="10pt" font-family="lt_regular"  y="52"></text><text text-decoration="none" x="0" fill="#0b0b0b" font-size="10pt" font-family="lt_regular"  y="74">+ReseivePayment()</text><text text-decoration="none" x="110" fill="#4b4b4b" font-size="10pt" font-family="noto_regular"  y="74"></text></g></g><g id="liUJuPjX9aR"><g transform="translate(-107.50000000000011 819.9999999999998)"><rect x="0" y="0" width="180" height="121.00000000000001" rx="2" ry="2" fill="rgb(242,242,242)" stroke="#0067A0" stroke-width="2" stroke-linecap="round" stroke-linejoin="round" stroke-dasharray="0 0"/><path d="M 0,28 L 180,28 M 0,56 L 180,56" fill="rgb(242,242,242)" stroke="#0067A0" stroke-width="2" stroke-linecap="round" stroke-linejoin="round" stroke-dasharray="0 0"/></g><g transform="translate(-97.50000000000011, 824.9999999999998) rotate(0, 0, 0)" width="103.74" height="18"><text text-decoration="none" x="0" fill="#0b0b0b" font-size="10pt" font-family="lt_regular"  y="17">Railway&#160;</text><text text-decoration="none" x="46" fill="#0b0b0b" font-size="10pt" font-family="lt_regular"  y="17">Database</text><text text-decoration="none" x="99" fill="#4b4b4b" font-size="10pt" font-family="noto_regular"  y="17"></text></g><g transform="translate(-97.50000000000011, 853.9999999999998) rotate(0, 0, 0)" width="21.6" height="18"><text text-decoration="none" x="0" fill="#0b0b0b" font-size="10pt" font-family="lt_regular"  y="17">+ID</text><text text-decoration="none" x="22" fill="#4b4b4b" font-size="10pt" font-family="noto_regular"  y="17"></text></g><g transform="translate(-97.5000000000001, 882.9999999999998) rotate(0, 0, 0)" width="64.15" height="36.01"><text text-decoration="none" x="0" fill="#0b0b0b" font-size="10pt" font-family="lt_regular"  y="14">+Response</text><text text-decoration="none" x="63" fill="#0b0b0b" font-size="10pt" font-family="lt_regular"  y="14"></text><text text-decoration="none" x="32.075" fill="#4b4b4b" font-size="10pt" font-family="noto_regular"  y="36"></text></g></g><g id="AHF72oHqOlw"><mask id="50777" x="58" y="138" width="236" height="106" maskUnits="userSpaceOnUse"><rect x="58" y="138" width="236" height="106" fill="white" /><rect x="237.15534837540935" y="140.14457663433538" width="25.69" height="24" fill="black" /><rect x="88.125" y="218" width="27.75" height="24" fill="black" /></mask><g mask="url(#50777)"><path d="M 280,152 L 176.24999999999994,152.49999999999997 L 176,191 L 176.24999999999994,230.00000000000003 L 72,230" fill="none" stroke="#0067A0" stroke-width="2" stroke-linecap="round" stroke-linejoin="round" stroke-dasharray="0 0"/></g><g transform="translate(240.15534837540935, 143.14457663433538)" width="19.69" height="18"><text text-decoration="none" x="0" fill="#0b0b0b" font-size="10pt" font-family="lt_regular"  y="17">1..*</text><text text-decoration="none" x="20" fill="#4b4b4b" font-size="10pt" font-family="noto_regular"  y="17"></text></g><g transform="translate(91.125, 221)" width="21.75" height="18"><text text-decoration="none" x="0" fill="#0b0b0b" font-size="10pt" font-family="lt_regular"  y="17">0..1</text><text text-decoration="none" x="22" fill="#4b4b4b" font-size="10pt" font-family="noto_regular"  y="17"></text></g></g><g id="UYc34mqPAes"><mask id="47d05" x="58" y="276" width="236" height="28" maskUnits="userSpaceOnUse"><rect x="58" y="276" width="236" height="28" fill="white" /><rect x="237.155" y="277.99999999999994" width="25.69" height="24" fill="black" /><rect x="87.38" y="278" width="29.24" height="24" fill="black" /><rect x="162.03109707446822" y="277.9999999999999" width="29.24" height="24" fill="black" /></mask><g mask="url(#47d05)"><path d="M 280,290 L 176.24999999999994,289.9999999999999 L 176,290 L 176.24999999999994,290.00000000000006 L 72,290" fill="none" stroke="#0067A0" stroke-width="2" stroke-linecap="round" stroke-linejoin="round" stroke-dasharray="0 0"/></g><g transform="translate(240.155, 280.99999999999994)" width="19.69" height="18"><text text-decoration="none" x="0" fill="#0b0b0b" font-size="10pt" font-family="lt_regular"  y="17">1..*</text><text text-decoration="none" x="20" fill="#4b4b4b" font-size="10pt" font-family="noto_regular"  y="17"></text></g><g transform="translate(90.38, 281)" width="23.24" height="18"><text text-decoration="none" x="0.11999999999999922" fill="#0b0b0b" font-size="10pt" font-family="lt_regular"  y="17">text</text><text text-decoration="none" x="23.119999999999997" fill="#4b4b4b" font-size="10pt" font-family="noto_regular"  y="17"></text></g><g transform="translate(165.03109707446822, 280.9999999999999)" width="23.24" height="18"><text text-decoration="none" x="0.11999999999999922" fill="#0b0b0b" font-size="10pt" font-family="lt_regular"  y="17">text</text><text text-decoration="none" x="23.119999999999997" fill="#4b4b4b" font-size="10pt" font-family="noto_regular"  y="17"></text></g></g><g id="Atc0tOxKjEm"><mask id="566b3" x="-32" y="396" width="28" height="148" maskUnits="userSpaceOnUse"><rect x="-32" y="396" width="28" height="148" fill="white" /><rect x="-30.595008680103525" y="488.0010416124163" width="25.69" height="24" fill="black" /><rect x="-30.59500868010352" y="427.9989583875837" width="25.69" height="24" fill="black" /></mask><g mask="url(#566b3)"><path d="M -18,530 L -17.500000000000114,470 L -18,470 L -17.5000000000001,470 L -18,410" fill="none" stroke="#0067A0" stroke-width="2" stroke-linecap="round" stroke-linejoin="round" stroke-dasharray="0 0"/></g><g transform="translate(-27.595008680103525, 491.0010416124163)" width="19.69" height="18"><text text-decoration="none" x="0" fill="#0b0b0b" font-size="10pt" font-family="lt_regular"  y="17">1..*</text><text text-decoration="none" x="20" fill="#4b4b4b" font-size="10pt" font-family="noto_regular"  y="17"></text></g><g transform="translate(-27.59500868010352, 430.9989583875837)" width="19.69" height="18"><text text-decoration="none" x="0" fill="#0b0b0b" font-size="10pt" font-family="lt_regular"  y="17">1..*</text><text text-decoration="none" x="20" fill="#4b4b4b" font-size="10pt" font-family="noto_regular"  y="17"></text></g></g><g id="9vETdzUyAVa"><mask id="f7106" x="58" y="336" width="236" height="162" maskUnits="userSpaceOnUse"><rect x="58" y="336" width="236" height="162" fill="white" /><rect x="237.15508709499014" y="471.92771105324096" width="25.69" height="24" fill="black" /><rect x="88.125" y="338" width="27.75" height="24" fill="black" /></mask><g mask="url(#f7106)"><path d="M 280,484 L 176.24999999999994,483.75000000000006 L 176,417 L 176.24999999999994,350.00000000000006 L 72,350" fill="none" stroke="#0067A0" stroke-width="2" stroke-linecap="round" stroke-linejoin="round" stroke-dasharray="0 0"/></g><g transform="translate(240.15508709499014, 474.92771105324096)" width="19.69" height="18"><text text-decoration="none" x="0" fill="#0b0b0b" font-size="10pt" font-family="lt_regular"  y="17">1..*</text><text text-decoration="none" x="20" fill="#4b4b4b" font-size="10pt" font-family="noto_regular"  y="17"></text></g><g transform="translate(91.125, 341)" width="21.75" height="18"><text text-decoration="none" x="0" fill="#0b0b0b" font-size="10pt" font-family="lt_regular"  y="17">0..1</text><text text-decoration="none" x="22" fill="#4b4b4b" font-size="10pt" font-family="noto_regular"  y="17"></text></g></g><g id="ZmPVrWt82PH"><mask id="ead01" x="-32" y="676" width="28" height="158" maskUnits="userSpaceOnUse"><rect x="-32" y="676" width="28" height="158" fill="white" /><rect x="-30.614237596419876" y="778.000887534577" width="25.69" height="24" fill="black" /><rect x="-31.64423759641987" y="707.999112465423" width="27.75" height="24" fill="black" /></mask><g mask="url(#ead01)"><path d="M -18,820 L -17.500000000000114,754.9999999999998 L -18,755 L -17.500000000000103,754.9999999999998 L -18,690" fill="none" stroke="#0067A0" stroke-width="2" stroke-linecap="round" stroke-linejoin="round" stroke-dasharray="0 0"/></g><g transform="translate(-27.614237596419876, 781.000887534577)" width="19.69" height="18"><text text-decoration="none" x="0" fill="#0b0b0b" font-size="10pt" font-family="lt_regular"  y="17">1..*</text><text text-decoration="none" x="20" fill="#4b4b4b" font-size="10pt" font-family="noto_regular"  y="17"></text></g><g transform="translate(-28.64423759641987, 710.999112465423)" width="21.75" height="18"><text text-decoration="none" x="0" fill="#0b0b0b" font-size="10pt" font-family="lt_regular"  y="17">0..1</text><text text-decoration="none" x="22" fill="#4b4b4b" font-size="10pt" font-family="noto_regular"  y="17"></text></g></g></svg>